<svg xmlns="http://www.w3.org/2000/svg" version="1.1" xmlns:xlink="http://www.w3.org/1999/xlink" viewBox="0 0 200 200"><rect width="200" height="200" fill="url('#gradient')"></rect><defs><linearGradient id="gradient" gradientTransform="rotate(45 0.5 0.5)"><stop offset="0%" stop-color="#0003b0"></stop><stop offset="100%" stop-color="#b9a9fc"></stop></linearGradient></defs><g><g fill="#9dbafc" transform="matrix(8.969343065693431,0,0,8.969343065693431,0.392047615991018,166.37547939606827)" stroke="#000000" stroke-width="0.2"><path d="M4.50-14.22L4.50-2.64L10.47-2.64L10.47 0L1.07 0L1.07-14.22L4.50-14.22ZM11.35-5.36L11.35-5.36Q11.35-7.87 12.43-9.32Q13.52-10.76 15.46-10.76L15.46-10.76Q16.88-10.76 17.84-9.65L17.84-9.65L17.84-15L21.14-15L21.14 0L18.18 0L18.02-1.13Q17.00 0.20 15.44 0.20L15.44 0.20Q13.55 0.20 12.45-1.25Q11.35-2.70 11.35-5.36ZM14.65-5.76L14.64-5.16Q14.64-2.34 16.28-2.34L16.28-2.34Q17.37-2.34 17.84-3.26L17.84-3.26L17.84-7.29Q17.39-8.22 16.30-8.22L16.30-8.22Q14.78-8.22 14.65-5.76L14.65-5.76Z"></path></g></g></svg>